<svg width="18" height="20" viewBox="0 0 18 20" fill="none" xmlns="http://www.w3.org/2000/svg">
<path d="M14.9715 3.91256C9.92942 8.89367 3.51434 16.6598 3.51434 16.6598C3.51434 16.6598 1.10691 19.7395 0.143411 19.056C-0.532156 18.5768 1.39714 16.0721 1.39714 16.0721C1.39714 16.0721 11.7871 3.91256 12.8485 3.15829C13.91 2.40402 16.0383 0.514026 16.8411 0.8955C17.5676 1.24068 15.6356 3.25687 14.9715 3.91256Z" fill="#DA8672"/>
<path d="M14.9715 16.0877C9.92942 11.1066 3.51434 3.34041 3.51434 3.34041C3.51434 3.34041 1.10691 0.260773 0.143411 0.944258C-0.532156 1.42349 1.39714 3.92816 1.39714 3.92816C1.39714 3.92816 11.7871 16.0877 12.8485 16.842C13.91 17.5962 16.0383 19.4862 16.8411 19.1047C17.5676 18.7596 15.6356 16.7434 14.9715 16.0877Z" fill="#DA8672"/>
</svg>
