<svg width="109" height="109" viewBox="0 0 109 109" fill="none" xmlns="http://www.w3.org/2000/svg">
<g filter="url(#filter0_b)">
<path d="M108 54.5C108 84.0472 84.0472 108 54.5 108C24.9528 108 1 84.0472 1 54.5C1 24.9528 24.9528 1 54.5 1C84.0472 1 108 24.9528 108 54.5Z" fill="white" fill-opacity="0.2"/>
</g>
<g filter="url(#filter1_b)">
<path fill-rule="evenodd" clip-rule="evenodd" d="M54.5 2C25.5051 2 2 25.5051 2 54.5C2 83.4949 25.5051 107 54.5 107C83.4949 107 107 83.4949 107 54.5C107 25.5051 83.4949 2 54.5 2ZM0 54.5C0 24.4005 24.4005 0 54.5 0C84.5995 0 109 24.4005 109 54.5C109 84.5995 84.5995 109 54.5 109C24.4005 109 0 84.5995 0 54.5Z" fill="white"/>
</g>
<path d="M30.0191 48.5C31.5691 48.5 32.9108 48.7583 34.0441 49.275C35.1941 49.7917 36.0774 50.525 36.6941 51.475C37.3108 52.425 37.6191 53.55 37.6191 54.85C37.6191 56.1333 37.3108 57.2583 36.6941 58.225C36.0774 59.175 35.1941 59.9083 34.0441 60.425C32.9108 60.925 31.5691 61.175 30.0191 61.175H26.4941V66H22.4441V48.5H30.0191ZM29.7941 57.875C31.0108 57.875 31.9358 57.6167 32.5691 57.1C33.2024 56.5667 33.5191 55.8167 33.5191 54.85C33.5191 53.8667 33.2024 53.1167 32.5691 52.6C31.9358 52.0667 31.0108 51.8 29.7941 51.8H26.4941V57.875H29.7941Z" fill="white"/>
<path d="M40.5105 48.5H44.5605V62.7H53.3355V66H40.5105V48.5Z" fill="white"/>
<path d="M67.2699 62.25H59.1449L57.5949 66H53.4449L61.2449 48.5H65.2449L73.0699 66H68.8199L67.2699 62.25ZM65.9949 59.175L63.2199 52.475L60.4449 59.175H65.9949Z" fill="white"/>
<path d="M82.2113 59.8V66H78.1613V59.75L71.3863 48.5H75.6863L80.3613 56.275L85.0363 48.5H89.0113L82.2113 59.8Z" fill="white"/>
<defs>
<filter id="filter0_b" x="-19" y="-19" width="147" height="147" filterUnits="userSpaceOnUse" color-interpolation-filters="sRGB">
<feFlood flood-opacity="0" result="BackgroundImageFix"/>
<feGaussianBlur in="BackgroundImage" stdDeviation="10"/>
<feComposite in2="SourceAlpha" operator="in" result="effect1_backgroundBlur"/>
<feBlend mode="normal" in="SourceGraphic" in2="effect1_backgroundBlur" result="shape"/>
</filter>
<filter id="filter1_b" x="-20" y="-20" width="149" height="149" filterUnits="userSpaceOnUse" color-interpolation-filters="sRGB">
<feFlood flood-opacity="0" result="BackgroundImageFix"/>
<feGaussianBlur in="BackgroundImage" stdDeviation="10"/>
<feComposite in2="SourceAlpha" operator="in" result="effect1_backgroundBlur"/>
<feBlend mode="normal" in="SourceGraphic" in2="effect1_backgroundBlur" result="shape"/>
</filter>
</defs>
</svg>
