<svg width="23" height="23" viewBox="0 0 23 23" fill="none" xmlns="http://www.w3.org/2000/svg">
<path d="M11.5 6.09424C8.50733 6.09424 6.09209 8.50948 6.09209 11.5022C6.09209 14.4948 8.50733 16.9101 11.5 16.9101C14.4927 16.9101 16.9079 14.4948 16.9079 11.5022C16.9079 8.50948 14.4927 6.09424 11.5 6.09424ZM11.5 15.0169C9.56465 15.0169 7.98526 13.4375 7.98526 11.5022C7.98526 9.5668 9.56465 7.98741 11.5 7.98741C13.4354 7.98741 15.0147 9.5668 15.0147 11.5022C15.0147 13.4375 13.4354 15.0169 11.5 15.0169ZM17.1294 4.6124C16.4307 4.6124 15.8664 5.17666 15.8664 5.87539C15.8664 6.57412 16.4307 7.13838 17.1294 7.13838C17.8281 7.13838 18.3924 6.57676 18.3924 5.87539C18.3926 5.70948 18.3601 5.54515 18.2967 5.39182C18.2333 5.2385 18.1403 5.09918 18.0229 4.98186C17.9056 4.86454 17.7663 4.77152 17.613 4.70812C17.4596 4.64472 17.2953 4.6122 17.1294 4.6124ZM22.0416 11.5022C22.0416 10.0467 22.0548 8.6044 21.9731 7.15157C21.8913 5.46407 21.5064 3.96641 20.2724 2.73242C19.0357 1.4958 17.5407 1.11348 15.8532 1.03174C14.3978 0.950003 12.9555 0.963187 11.5026 0.963187C10.0472 0.963187 8.60489 0.950003 7.15205 1.03174C5.46455 1.11348 3.9669 1.49844 2.73291 2.73242C1.49629 3.96905 1.11397 5.46407 1.03223 7.15157C0.950491 8.60703 0.963675 10.0493 0.963675 11.5022C0.963675 12.955 0.950491 14.3999 1.03223 15.8527C1.11397 17.5402 1.49893 19.0379 2.73291 20.2719C3.96953 21.5085 5.46455 21.8908 7.15205 21.9726C8.60752 22.0543 10.0498 22.0411 11.5026 22.0411C12.9581 22.0411 14.4004 22.0543 15.8532 21.9726C17.5407 21.8908 19.0384 21.5059 20.2724 20.2719C21.509 19.0353 21.8913 17.5402 21.9731 15.8527C22.0574 14.3999 22.0416 12.9576 22.0416 11.5022ZM19.7213 17.7195C19.5288 18.1994 19.2968 18.558 18.925 18.9272C18.5532 19.2989 18.1973 19.531 17.7174 19.7234C16.3305 20.2745 13.0372 20.1506 11.5 20.1506C9.9628 20.1506 6.6669 20.2745 5.27998 19.7261C4.8001 19.5336 4.44151 19.3016 4.07237 18.9298C3.70059 18.558 3.46856 18.2021 3.27608 17.7222C2.72764 16.3326 2.85157 13.0394 2.85157 11.5022C2.85157 9.96494 2.72764 6.66905 3.27608 5.28213C3.46856 4.80225 3.70059 4.44366 4.07237 4.07451C4.44414 3.70537 4.8001 3.47071 5.27998 3.27823C6.6669 2.72979 9.9628 2.85371 11.5 2.85371C13.0372 2.85371 16.3331 2.72979 17.72 3.27823C18.1999 3.47071 18.5585 3.70274 18.9276 4.07451C19.2994 4.44629 19.5315 4.80225 19.7239 5.28213C20.2724 6.66905 20.1484 9.96494 20.1484 11.5022C20.1484 13.0394 20.2724 16.3326 19.7213 17.7195Z" fill="black"/>
</svg>
