<svg viewBox="0 0 212 28" fill="none" xmlns="http://www.w3.org/2000/svg">
<g style="mix-blend-mode:difference">
<path d="M81.1158 4.85846C81.1158 4.85846 80.2909 1.55253 77.7245 0.54238C74.9749 -0.559598 72.5918 0.358716 72.5918 0.358716C72.5918 0.358716 74.15 2.83817 75.8914 3.75648C78.1828 4.95029 81.1158 4.85846 81.1158 4.85846Z" fill="black"/>
<path d="M87.0733 20.3785C86.7984 20.1949 86.6151 20.0112 86.3401 20.0112C85.7902 20.0112 85.4235 20.2867 85.1486 20.7458C84.7819 21.5723 84.232 22.3988 83.4988 23.1335C82.7655 23.8681 81.9406 24.5109 80.9324 24.9701C79.9242 25.4292 78.8243 25.6129 77.6328 25.6129C75.983 25.6129 74.6081 25.2456 73.4166 24.4191C72.2251 23.6845 71.3085 22.5825 70.7586 21.2968C70.117 20.0112 69.842 18.5419 69.842 16.8889C69.842 15.236 70.117 13.8585 70.7586 12.5728C71.4002 11.2872 72.3167 10.2771 73.4166 9.45057C74.5165 8.71592 75.8913 8.34859 77.4495 8.25676C76.3496 8.80775 75.433 9.63423 74.6081 10.7362C72.5001 13.583 72.1334 17.3481 73.8749 19.7357C74.0582 20.103 74.5165 20.2867 74.8831 20.2867C75.1581 20.2867 75.3414 20.1949 75.5247 20.103C76.0746 19.7357 76.1663 19.001 75.7997 18.4501C74.6998 16.8889 74.9748 14.2258 76.5329 12.2055C77.7244 10.5525 79.3742 9.72606 81.1157 9.8179C81.6656 9.8179 82.1239 10.0016 82.5822 10.1852C83.0405 10.3689 83.2238 10.5525 83.5904 10.7362C84.4153 11.379 84.9653 12.3892 85.2402 12.9402C85.2402 12.9402 85.4235 13.1238 85.4235 13.2157C85.6985 13.4912 85.9735 13.6748 86.5234 13.6748C86.7067 13.6748 86.9817 13.583 87.165 13.3075C87.3483 13.032 87.44 12.8483 87.44 12.481C87.44 12.2973 87.44 12.1137 87.3483 11.93C87.2567 11.7464 87.165 11.5627 87.0733 11.379C86.6151 10.4607 85.9735 9.63423 85.1486 8.89958C84.232 7.98127 83.1321 7.24661 81.849 6.69563C80.5658 6.14464 79.1909 5.86914 77.6328 5.86914C76.0746 5.86914 74.6998 6.14464 73.5083 6.69563C72.2251 7.24661 71.2169 8.0731 70.3003 8.99141C69.3838 10.0016 68.7422 11.1035 68.1922 12.481C67.734 13.7667 67.459 15.236 67.459 16.7053C67.459 18.2664 67.734 19.7357 68.1922 21.0213C68.6505 22.3988 69.3838 23.5008 70.2087 24.6028C71.1252 25.6129 72.1334 26.4394 73.4166 26.9904C74.6998 27.5414 76.0746 27.8169 77.6328 27.8169C79.1909 27.8169 80.6574 27.5414 81.9406 26.8986C83.2238 26.3476 84.3237 25.5211 85.2402 24.6028C86.1568 23.6845 86.89 22.5825 87.3483 21.4805C87.44 21.2968 87.44 21.1132 87.44 20.8377C87.44 20.8377 87.2567 20.5622 87.0733 20.3785Z" fill="black"/>
<path d="M44.5447 28.0005C44.2697 28.0005 43.9948 27.9086 43.8114 27.6331C43.5365 27.4495 43.4448 27.174 43.4448 26.8985C43.4448 26.623 43.4448 26.4393 43.5365 26.3475L52.1521 6.78739C52.2438 6.60372 52.3354 6.51189 52.6104 6.32823C52.7937 6.14457 52.977 6.05273 53.252 6.05273C53.8019 6.05273 54.1686 6.32823 54.3519 6.78739L62.9675 26.3475C63.0592 26.4393 63.0592 26.623 63.0592 26.8067C63.0592 27.0821 62.9675 27.3576 62.7842 27.6331C62.6009 27.9086 62.3259 28.0005 62.051 28.0005C61.4094 28.0005 61.0427 27.725 60.8594 27.2658L57.7431 20.103H49.0358L45.8279 27.2658C45.4613 27.725 45.0946 28.0005 44.5447 28.0005ZM53.1603 10.1852L49.8607 17.7153H56.46L53.1603 10.1852Z" fill="black"/>
<path d="M1.19153 28.0005C0.824903 28.0005 0.549935 27.9086 0.366623 27.6331C0.183312 27.3576 0 27.0821 0 26.8067V7.24654C0 7.06288 0.0916559 6.78739 0.274968 6.51189C0.458279 6.2364 0.733247 6.05273 1.09987 6.05273H6.04929C7.51578 6.05273 8.89062 6.32823 10.0821 6.78739C11.2737 7.24654 12.1902 7.9812 12.9235 8.99134C13.6567 10.0015 13.9317 11.1953 13.9317 12.6646C13.9317 14.4094 13.5651 15.7869 12.8318 16.797C12.0986 17.8072 11.0904 18.6337 9.80718 19.0928C8.52399 19.552 7.0575 19.8275 5.4077 19.9193L2.38305 20.0111V26.8067C2.38305 27.174 2.2914 27.4495 2.01643 27.6331C1.83312 27.8168 1.55815 28.0005 1.19153 28.0005ZM11.5486 12.6646C11.5486 11.1035 10.9987 10.0015 9.99049 9.35867C8.98227 8.71585 7.60744 8.34852 5.95763 8.34852H2.2914V17.5317H5.31604C6.59922 17.5317 7.69909 17.348 8.61565 17.0725C9.53221 16.797 10.2655 16.246 10.8154 15.6032C11.2737 14.8686 11.5486 13.9502 11.5486 12.6646Z" fill="black"/>
<path d="M20.5308 7.24654C20.5308 6.87922 20.6224 6.60372 20.8974 6.42006C21.1724 6.14457 21.4473 6.05273 21.7223 6.05273H36.3872C36.7539 6.05273 37.0288 6.14457 37.2121 6.42006C37.4871 6.69555 37.5788 6.97105 37.5788 7.24654C37.5788 7.61387 37.4871 7.88937 37.2121 8.07303C37.0288 8.34852 36.6622 8.44035 36.3872 8.44035H22.9138V15.8787H23.0055H23.0971L35.104 15.9705C35.4707 15.9705 35.7456 16.0624 35.9289 16.3379C36.1123 16.5215 36.2956 16.8889 36.2956 17.2562C36.2956 17.5317 36.2039 17.8072 35.9289 17.9908C35.654 18.1745 35.379 18.3582 35.104 18.3582L23.0971 18.2663H22.9138V25.6128H36.2956C36.6622 25.6128 36.9372 25.7047 37.1205 25.9802C37.3954 26.2557 37.4871 26.5312 37.4871 26.8067C37.4871 27.174 37.3954 27.4495 37.1205 27.6331C36.9372 27.9086 36.5705 28.0005 36.2956 28.0005H21.7223C21.3557 28.0005 21.0807 27.9086 20.8974 27.6331C20.6224 27.3576 20.5308 27.0821 20.5308 26.8067V7.24654Z" fill="black"/>
<path d="M94.0388 7.06288C94.0388 6.78739 94.1305 6.51189 94.4054 6.32823C94.6804 6.14457 94.8637 6.05273 95.1387 6.05273C95.5053 6.05273 95.7803 6.14457 96.0553 6.42006C96.3302 6.60372 96.4219 6.87922 96.4219 7.24654V15.5114H108.887V7.24654C108.887 6.87922 108.979 6.60372 109.254 6.42006C109.437 6.2364 109.712 6.05273 110.079 6.05273C110.445 6.05273 110.72 6.14457 110.903 6.42006C111.087 6.60372 111.27 6.97105 111.27 7.24654V26.7148C111.27 27.0821 111.178 27.3576 110.903 27.5413C110.629 27.725 110.354 27.9086 110.079 27.9086C109.712 27.9086 109.437 27.8168 109.254 27.5413C109.07 27.3576 108.887 26.9903 108.887 26.7148V17.8072H96.4219V26.7148C96.4219 27.0821 96.3302 27.3576 96.0553 27.5413C95.8719 27.725 95.597 27.9086 95.2303 27.9086C94.8637 27.9086 94.5888 27.8168 94.4054 27.5413C94.1305 27.2658 94.0388 26.9903 94.0388 26.7148V7.06288Z" fill="black"/>
<path d="M129.601 28.0005C129.235 28.0005 128.96 27.9086 128.777 27.6331C128.593 27.4495 128.41 27.0821 128.41 26.8067V7.24654C128.41 7.06288 128.502 6.78739 128.685 6.51189C128.868 6.2364 129.143 6.05273 129.51 6.05273H134.459C135.926 6.05273 137.301 6.32823 138.492 6.78739C139.684 7.24654 140.6 7.9812 141.333 8.99134C142.067 10.0015 142.342 11.1953 142.342 12.6646C142.342 14.4094 141.975 15.7869 141.242 16.797C140.508 17.8072 139.5 18.6337 138.217 19.0928C136.934 19.552 135.467 19.8275 133.818 19.9193L130.793 20.0111V26.8067C130.793 27.174 130.701 27.4495 130.426 27.6331C130.243 27.8168 129.968 28.0005 129.601 28.0005ZM139.959 12.6646C139.959 11.1035 139.409 10.0015 138.4 9.35867C137.392 8.71585 136.017 8.34852 134.368 8.34852H130.701V17.5317H133.818C135.101 17.5317 136.201 17.348 137.117 17.0725C138.034 16.797 138.767 16.246 139.317 15.6032C139.775 14.8686 139.959 13.9502 139.959 12.6646Z" fill="black"/>
<path d="M148.941 7.24654C148.941 6.87922 149.033 6.60372 149.308 6.42006C149.583 6.14457 149.857 6.05273 150.132 6.05273H164.797C165.164 6.05273 165.439 6.14457 165.622 6.42006C165.897 6.69555 165.989 6.97105 165.989 7.24654C165.989 7.61387 165.897 7.88937 165.622 8.07303C165.439 8.34852 165.072 8.44035 164.797 8.44035H151.324V15.8787H151.416H151.507L163.514 15.9705C163.881 15.9705 164.156 16.0624 164.339 16.3379C164.522 16.5215 164.706 16.8889 164.706 17.2562C164.706 17.5317 164.614 17.8072 164.339 17.9908C164.064 18.1745 163.789 18.3582 163.514 18.3582L151.507 18.2663H151.416V25.6128H164.797C165.164 25.6128 165.439 25.7047 165.622 25.9802C165.897 26.2557 165.989 26.5312 165.989 26.8067C165.989 27.174 165.897 27.4495 165.622 27.6331C165.439 27.9086 165.072 28.0005 164.797 28.0005H150.224C149.857 28.0005 149.583 27.9086 149.399 27.6331C149.124 27.3576 149.033 27.0821 149.033 26.8067L148.941 7.24654Z" fill="black"/>
<path d="M172.588 7.24654C172.588 6.87922 172.68 6.60372 172.955 6.42006C173.23 6.14457 173.505 6.05273 173.78 6.05273H188.445C188.811 6.05273 189.086 6.14457 189.269 6.42006C189.544 6.69555 189.636 6.97105 189.636 7.24654C189.636 7.61387 189.544 7.88937 189.269 8.07303C189.086 8.34852 188.72 8.44035 188.445 8.44035H174.971V15.8787H175.063H175.155L187.161 15.9705C187.528 15.9705 187.803 16.0624 187.986 16.3379C188.17 16.5215 188.353 16.8889 188.353 17.2562C188.353 17.5317 188.261 17.8072 187.986 17.9908C187.711 18.1745 187.436 18.3582 187.161 18.3582L175.155 18.2663H175.063V25.6128H188.445C188.811 25.6128 189.086 25.7047 189.269 25.9802C189.544 26.2557 189.636 26.5312 189.636 26.8067C189.636 27.174 189.544 27.4495 189.269 27.6331C189.086 27.9086 188.72 28.0005 188.445 28.0005H173.871C173.505 28.0005 173.23 27.9086 173.046 27.6331C172.771 27.3576 172.68 27.0821 172.68 26.8067L172.588 7.24654Z" fill="black"/>
<path d="M197.426 28.0005C197.06 28.0005 196.785 27.9086 196.602 27.6331C196.327 27.3576 196.235 27.0821 196.235 26.8067L196.143 7.24654C196.143 6.87922 196.235 6.60372 196.51 6.42006C196.785 6.14457 197.06 6.05273 197.335 6.05273C197.701 6.05273 197.976 6.14457 198.16 6.42006C198.343 6.69555 198.526 6.97105 198.526 7.24654L198.618 25.6128H210.808C211.175 25.6128 211.45 25.7047 211.633 25.9802C211.816 26.2557 212 26.5312 212 26.8067C212 27.174 211.908 27.4495 211.633 27.6331C211.358 27.9086 211.083 28.0005 210.808 28.0005H197.426Z" fill="black"/>
</g>
</svg>
