<svg width="27" height="27" viewBox="0 0 27 27" fill="none" xmlns="http://www.w3.org/2000/svg">
<path d="M23.7757 4.52306C15.7693 11.8681 5.58251 23.32 5.58251 23.32C5.58251 23.32 1.75967 27.8612 0.229682 26.8534C-0.843078 26.1467 2.22053 22.4533 2.22053 22.4533C2.22053 22.4533 18.7191 4.52306 20.4046 3.41083C22.0902 2.2986 25.4697 -0.488367 26.7446 0.0741497C27.8982 0.583143 24.8303 3.5562 23.7757 4.52306Z" fill="#DA8672"/>
<path d="M23.7757 22.4763C15.7693 15.1313 5.58251 3.67937 5.58251 3.67937C5.58251 3.67937 1.75967 -0.861828 0.229682 0.14603C-0.843078 0.852697 2.22053 4.54605 2.22053 4.54605C2.22053 4.54605 18.7191 22.4763 20.4046 23.5886C22.0902 24.7008 25.4697 27.4878 26.7446 26.9252C27.8982 26.4162 24.8303 23.4432 23.7757 22.4763Z" fill="#DA8672"/>
</svg>
