<svg xmlns="http://www.w3.org/2000/svg" viewBox="0 0 13.79 13.37">
  <g id="Слой_2" data-name="Слой 2">
    <g id="Слой_1-2" data-name="Слой 1">
      <g>
        <path d="M12.13,5.14c-.49-.44-1-.89-1.45-1.34s-1-.88-1.44-1.33L7.32.71C7.14.53,7,.36,6.75.19a.38.38,0,0,0-.48,0,.35.35,0,0,0,0,.55l.8.74L8.75,3l1.7,1.56,1.05,1a5.11,5.11,0,0,1,.62.61A3.86,3.86,0,0,1,13,9.69a3.73,3.73,0,0,1-1.18,2,3.8,3.8,0,0,1-3.3.93,3.74,3.74,0,0,1-1.86-.88c-.67-.6-1.31-1.2-2-1.8L3.42,8.75l-2-1.82c-.15-.14-.3-.28-.46-.41a.35.35,0,0,0-.59.3.38.38,0,0,0,.13.25c.42.39.83.79,1.26,1.17S2.61,9,3,9.4l1.42,1.3,1.48,1.36a4.68,4.68,0,0,0,3.3,1.31l.45,0a4.38,4.38,0,0,0,1.72-.54,4.66,4.66,0,0,0,2-2.23A5,5,0,0,0,13.78,9a4.71,4.71,0,0,0-.27-1.94A4.87,4.87,0,0,0,12.13,5.14Z"/>
        <path d="M11.31,8a4.17,4.17,0,0,1,.09.51.31.31,0,0,0,.25.29.33.33,0,0,0,.4-.34,3.34,3.34,0,0,0-.1-.62A3.09,3.09,0,0,0,8.4,5.58,2.92,2.92,0,0,0,6.62,6.64a3.06,3.06,0,0,0-.71,2,2.11,2.11,0,0,0,0,.35A4.36,4.36,0,0,0,6,9.51a3.05,3.05,0,0,0,2.82,2.2,2.91,2.91,0,0,0,1.86-.55,3,3,0,0,0,1.13-1.47.44.44,0,0,0,0-.28.31.31,0,0,0-.27-.2.27.27,0,0,0-.29.15l-.17.34A2.35,2.35,0,0,1,9.62,11a2.26,2.26,0,0,1-1.43-.05A2.35,2.35,0,0,1,6.6,9a2.35,2.35,0,0,1,.68-2.17A2.39,2.39,0,0,1,10,6.38,2.42,2.42,0,0,1,11.31,8Z"/>
        <path d="M2.19,5.36l1.5,1.39.83.76a.29.29,0,0,0,.23.1.34.34,0,0,0,.37-.38A.46.46,0,0,0,5,6.93L3.49,5.58.65,2.94a1,1,0,0,0-.2-.15A.31.31,0,0,0,0,3a.39.39,0,0,0,.11.38l.57.53Z"/>
        <path d="M.43.75,2,2.22,3.88,4l.46.41a.36.36,0,0,0,.57-.15.38.38,0,0,0-.12-.41l-.65-.61-1.6-1.5L1.21.51.77.1A.3.3,0,0,0,.39,0,.36.36,0,0,0,.19.4.52.52,0,0,0,.27.58.85.85,0,0,0,.43.75Z"/>
        <path d="M4.09,1.29l.34.31L6.86,3.87a5,5,0,0,0,.43.37.33.33,0,0,0,.37,0,.35.35,0,0,0,.18-.33c0-.17-.12-.26-.22-.36L6.11,2.16,4.84,1,4.44.61A.34.34,0,0,0,4,.63a.35.35,0,0,0,0,.47A.74.74,0,0,0,4.09,1.29Z"/>
        <path d="M10.12,9.24A1.43,1.43,0,0,1,9,9.89a1.54,1.54,0,0,1-.85-.12.34.34,0,0,0-.43.1c-.12.17,0,.37.18.46a1.19,1.19,0,0,0,.32.1,2,2,0,0,0,.55.07A2.19,2.19,0,0,0,10,10.17a1.68,1.68,0,0,0,.34-.27,2,2,0,0,0,.34-.42.27.27,0,0,0-.25-.43A.36.36,0,0,0,10.12,9.24Z"/>
        <path d="M5.29,5.19a.37.37,0,0,0,.36-.37.36.36,0,0,0-.72,0A.37.37,0,0,0,5.29,5.19Z"/>
      </g>
    </g>
  </g>
</svg>
