<svg width="22" height="17" viewBox="0 0 22 17" fill="none" xmlns="http://www.w3.org/2000/svg">
<path d="M16.14 9.45001C16.8797 9.44751 17.6064 9.25465 18.25 8.89C17.3439 11.2355 15.8409 13.3037 13.89 14.89C13.7784 14.9819 13.686 15.0949 13.618 15.2226C13.5501 15.3502 13.5079 15.49 13.494 15.6339C13.4801 15.7779 13.4946 15.9231 13.5368 16.0614C13.579 16.1997 13.6481 16.3284 13.74 16.44C13.8319 16.5516 13.9449 16.6441 14.0726 16.712C14.2002 16.78 14.34 16.8221 14.4839 16.836C14.6279 16.8499 14.7731 16.8354 14.9114 16.7932C15.0497 16.751 15.1784 16.6819 15.29 16.59C19.29 13.34 21.07 8.84 21.07 6.05C21.0631 5.06351 20.7691 4.10037 20.224 3.27818C19.6788 2.45598 18.906 1.81031 18 1.42C17.4136 1.13595 16.7715 0.985669 16.12 0.980004C15.5465 0.95213 14.9734 1.04101 14.4353 1.24126C13.8972 1.44151 13.4054 1.74896 12.9897 2.14496C12.574 2.54095 12.243 3.01726 12.0169 3.54498C11.7908 4.07271 11.6742 4.64087 11.6742 5.215C11.6742 5.78914 11.7908 6.3573 12.0169 6.88503C12.243 7.41275 12.574 7.88906 12.9897 8.28505C13.4054 8.68105 13.8972 8.9885 14.4353 9.18875C14.9734 9.389 15.5465 9.47788 16.12 9.45001H16.14Z" fill="#4D4D4D"/>
<path d="M4.99999 9.45C5.73985 9.4484 6.46672 9.25548 7.10999 8.88999C6.2042 11.233 4.70524 13.3006 2.75999 14.89C2.63824 14.9778 2.53573 15.0895 2.45878 15.2184C2.38183 15.3472 2.33206 15.4905 2.31255 15.6393C2.29303 15.7881 2.30417 15.9393 2.34529 16.0837C2.3864 16.228 2.45662 16.3624 2.55163 16.4786C2.64663 16.5948 2.76441 16.6903 2.89771 16.7593C3.03101 16.8283 3.17702 16.8692 3.32675 16.8797C3.47647 16.8901 3.62675 16.8698 3.76833 16.82C3.90991 16.7702 4.03979 16.6919 4.14999 16.59C8.14999 13.34 9.92999 8.83999 9.92999 6.04999C9.92525 5.07467 9.63985 4.12134 9.10787 3.30386C8.57589 2.48638 7.81982 1.83933 6.92999 1.44C6.32878 1.14763 5.66851 0.997105 4.99999 0.999995C4.42653 0.972121 3.85338 1.061 3.3153 1.26125C2.77722 1.4615 2.28541 1.76895 1.86969 2.16494C1.45398 2.56094 1.12302 3.03725 0.896881 3.56497C0.670744 4.0927 0.55414 4.66086 0.55414 5.235C0.55414 5.80913 0.670744 6.37729 0.896881 6.90502C1.12302 7.43274 1.45398 7.90905 1.86969 8.30505C2.28541 8.70104 2.77722 9.00849 3.3153 9.20874C3.85338 9.40899 4.42653 9.49787 4.99999 9.46999V9.45Z" fill="#4D4D4D"/>
</svg>
