<svg viewBox="0 0 63 63" fill="none" xmlns="http://www.w3.org/2000/svg">
<path fill-rule="evenodd" clip-rule="evenodd" d="M52.7593 31.5L48.3293 35.3763L47.6707 34.6237L50.6693 32L12 32V31L50.6693 31L47.6707 28.3763L48.3293 27.6237L52.7593 31.5ZM31.5 62C48.3447 62 62 48.3447 62 31.5C62 14.6553 48.3447 1 31.5 1C14.6553 1 1 14.6553 1 31.5C1 48.3447 14.6553 62 31.5 62ZM31.5 63C48.897 63 63 48.897 63 31.5C63 14.103 48.897 0 31.5 0C14.103 0 0 14.103 0 31.5C0 48.897 14.103 63 31.5 63Z" fill="black"/>
</svg>
