<svg viewBox="0 0 63 63" fill="none" xmlns="http://www.w3.org/2000/svg">
<path fill-rule="evenodd" clip-rule="evenodd" d="M10.2407 31.5L14.6707 35.3763L15.3293 34.6237L12.3307 32L51 32V31L12.3307 31L15.3293 28.3763L14.6707 27.6237L10.2407 31.5ZM31.5 62C14.6553 62 0.999996 48.3447 0.999996 31.5C0.999996 14.6553 14.6553 1 31.5 1C48.3447 1 62 14.6553 62 31.5C62 48.3447 48.3447 62 31.5 62ZM31.5 63C14.103 63 -3.8147e-06 48.897 -3.8147e-06 31.5C-3.8147e-06 14.103 14.103 0 31.5 0C48.897 0 63 14.103 63 31.5C63 48.897 48.897 63 31.5 63Z" fill="black"/>
</svg>
