<svg width="136" height="34" viewBox="0 0 136 34" fill="none" xmlns="http://www.w3.org/2000/svg">
<circle cx="119" cy="17" r="16.5" stroke="#545454"/>
<line x1="102" y1="17.5" y2="17.5" stroke="#545454"/>
<path d="M119.95 15.775C120.732 15.775 121.429 15.9223 122.041 16.217C122.664 16.5117 123.152 16.9367 123.503 17.492C123.854 18.036 124.03 18.665 124.03 19.379C124.03 20.127 123.843 20.7843 123.469 21.351C123.106 21.9177 122.602 22.3597 121.956 22.677C121.321 22.983 120.607 23.136 119.814 23.136C118.216 23.136 116.981 22.6203 116.108 21.589C115.247 20.5577 114.816 19.0957 114.816 17.203C114.816 15.877 115.048 14.7493 115.513 13.82C115.989 12.8793 116.646 12.171 117.485 11.695C118.335 11.2077 119.321 10.964 120.443 10.964C121.021 10.964 121.565 11.0263 122.075 11.151C122.585 11.2643 123.027 11.4343 123.401 11.661L122.755 12.987C122.188 12.613 121.429 12.426 120.477 12.426C119.242 12.426 118.273 12.8113 117.57 13.582C116.867 14.3413 116.516 15.452 116.516 16.914C116.516 17.0953 116.522 17.237 116.533 17.339C116.873 16.829 117.338 16.4437 117.927 16.183C118.528 15.911 119.202 15.775 119.95 15.775ZM119.746 21.759C120.528 21.759 121.163 21.5493 121.65 21.13C122.137 20.7107 122.381 20.1497 122.381 19.447C122.381 18.7443 122.132 18.189 121.633 17.781C121.146 17.3617 120.488 17.152 119.661 17.152C119.128 17.152 118.652 17.254 118.233 17.458C117.825 17.662 117.502 17.9397 117.264 18.291C117.037 18.6423 116.924 19.0333 116.924 19.464C116.924 19.8833 117.032 20.2687 117.247 20.62C117.474 20.96 117.797 21.2377 118.216 21.453C118.647 21.657 119.157 21.759 119.746 21.759Z" fill="#545454"/>
</svg>
