<svg width="136" height="34" viewBox="0 0 136 34" fill="none" xmlns="http://www.w3.org/2000/svg">
<line x1="136" y1="17.5" x2="34" y2="17.5" stroke="#545454"/>
<circle cx="17" cy="17" r="16.5" stroke="#545454"/>
<path d="M12.505 11.1V23H10.822V12.579H8.136V11.1H12.505ZM20.48 23.136C19.5393 23.136 18.7007 22.898 17.964 22.422C17.2387 21.9347 16.6663 21.232 16.247 20.314C15.8277 19.396 15.618 18.308 15.618 17.05C15.618 15.792 15.8277 14.704 16.247 13.786C16.6663 12.868 17.2387 12.171 17.964 11.695C18.7007 11.2077 19.5393 10.964 20.48 10.964C21.4093 10.964 22.2367 11.2077 22.962 11.695C23.6987 12.171 24.2767 12.868 24.696 13.786C25.1153 14.704 25.325 15.792 25.325 17.05C25.325 18.308 25.1153 19.396 24.696 20.314C24.2767 21.232 23.6987 21.9347 22.962 22.422C22.2367 22.898 21.4093 23.136 20.48 23.136ZM20.48 21.623C21.432 21.623 22.1913 21.232 22.758 20.45C23.336 19.668 23.625 18.5347 23.625 17.05C23.625 15.5653 23.336 14.432 22.758 13.65C22.1913 12.868 21.432 12.477 20.48 12.477C19.5167 12.477 18.746 12.868 18.168 13.65C17.6013 14.432 17.318 15.5653 17.318 17.05C17.318 18.5347 17.6013 19.668 18.168 20.45C18.746 21.232 19.5167 21.623 20.48 21.623Z" fill="#545454"/>
</svg>
