<svg width="28" height="28" viewBox="0 0 28 28" fill="none" xmlns="http://www.w3.org/2000/svg">
<circle cx="14" cy="14" r="13.5" stroke="#545454"/>
<path d="M14.0797 13.05C14.7237 13.05 15.2977 13.1713 15.8017 13.414C16.315 13.6567 16.7164 14.0067 17.0057 14.464C17.295 14.912 17.4397 15.43 17.4397 16.018C17.4397 16.634 17.2857 17.1753 16.9777 17.642C16.679 18.1087 16.2637 18.4727 15.7317 18.734C15.209 18.986 14.621 19.112 13.9677 19.112C12.6517 19.112 11.6344 18.6873 10.9157 17.838C10.2064 16.9887 9.85169 15.7847 9.85169 14.226C9.85169 13.134 10.043 12.2053 10.4257 11.44C10.8177 10.6653 11.359 10.082 12.0497 9.69C12.7497 9.28867 13.5617 9.088 14.4857 9.088C14.9617 9.088 15.4097 9.13933 15.8297 9.242C16.2497 9.33533 16.6137 9.47533 16.9217 9.662L16.3897 10.754C15.923 10.446 15.2977 10.292 14.5137 10.292C13.4964 10.292 12.6984 10.6093 12.1197 11.244C11.541 11.8693 11.2517 12.784 11.2517 13.988C11.2517 14.1373 11.2564 14.254 11.2657 14.338C11.5457 13.918 11.9284 13.6007 12.4137 13.386C12.9084 13.162 13.4637 13.05 14.0797 13.05ZM13.9117 17.978C14.5557 17.978 15.0784 17.8053 15.4797 17.46C15.881 17.1147 16.0817 16.6527 16.0817 16.074C16.0817 15.4953 15.8764 15.038 15.4657 14.702C15.0644 14.3567 14.523 14.184 13.8417 14.184C13.403 14.184 13.011 14.268 12.6657 14.436C12.3297 14.604 12.0637 14.8327 11.8677 15.122C11.681 15.4113 11.5877 15.7333 11.5877 16.088C11.5877 16.4333 11.6764 16.7507 11.8537 17.04C12.0404 17.32 12.3064 17.5487 12.6517 17.726C13.0064 17.894 13.4264 17.978 13.9117 17.978Z" fill="#545454"/>
</svg>
