<svg width="28" height="28" viewBox="0 0 28 28" fill="none" xmlns="http://www.w3.org/2000/svg">
<circle cx="14" cy="14" r="13.5" stroke="#545454"/>
<path d="M12.9525 13.106C14.3525 13.106 15.3791 13.372 16.0325 13.904C16.6951 14.4267 17.0265 15.1453 17.0265 16.06C17.0265 16.6387 16.8865 17.1613 16.6065 17.628C16.3358 18.0853 15.9205 18.4493 15.3605 18.72C14.8098 18.9813 14.1285 19.112 13.3165 19.112C12.6258 19.112 11.9585 19.0093 11.3145 18.804C10.6705 18.5893 10.1385 18.2953 9.71847 17.922L10.3625 16.816C10.6985 17.1333 11.1278 17.39 11.6505 17.586C12.1731 17.7727 12.7238 17.866 13.3025 17.866C14.0398 17.866 14.6091 17.712 15.0105 17.404C15.4211 17.0867 15.6265 16.6573 15.6265 16.116C15.6265 15.528 15.4025 15.0847 14.9545 14.786C14.5065 14.478 13.7411 14.324 12.6585 14.324H10.4325L10.9505 9.2H16.4805V10.418H12.1265L11.8605 13.106H12.9525Z" fill="#545454"/>
</svg>
