<svg width="135" height="34" viewBox="0 0 135 34" fill="none" xmlns="http://www.w3.org/2000/svg">
<line x1="135" y1="17.5" x2="33" y2="17.5" stroke="#545454"/>
<circle cx="17" cy="17" r="16.5" stroke="#545454"/>
<path d="M16.675 10.964C18.273 10.964 19.5027 11.4797 20.364 12.511C21.2367 13.5423 21.673 15.0043 21.673 16.897C21.673 18.223 21.435 19.3563 20.959 20.297C20.4943 21.2263 19.837 21.9347 18.987 22.422C18.1483 22.898 17.168 23.136 16.046 23.136C15.468 23.136 14.924 23.0793 14.414 22.966C13.904 22.8413 13.462 22.6657 13.088 22.439L13.734 21.113C14.312 21.487 15.077 21.674 16.029 21.674C17.2643 21.674 18.2277 21.2943 18.919 20.535C19.6217 19.7643 19.973 18.648 19.973 17.186V16.761C19.633 17.271 19.1627 17.662 18.562 17.934C17.9613 18.1947 17.287 18.325 16.539 18.325C15.757 18.325 15.0543 18.1777 14.431 17.883C13.819 17.5883 13.3373 17.169 12.986 16.625C12.646 16.0697 12.476 15.435 12.476 14.721C12.476 13.973 12.6573 13.3157 13.02 12.749C13.394 12.1823 13.8983 11.746 14.533 11.44C15.1677 11.1227 15.8817 10.964 16.675 10.964ZM16.828 16.948C17.3607 16.948 17.8367 16.846 18.256 16.642C18.6753 16.438 18.9983 16.1603 19.225 15.809C19.463 15.4577 19.582 15.0667 19.582 14.636C19.582 14.2167 19.4687 13.837 19.242 13.497C19.0267 13.1457 18.7037 12.868 18.273 12.664C17.8537 12.4487 17.3437 12.341 16.743 12.341C15.961 12.341 15.3263 12.5507 14.839 12.97C14.363 13.3893 14.125 13.9503 14.125 14.653C14.125 15.3557 14.3687 15.9167 14.856 16.336C15.3433 16.744 16.0007 16.948 16.828 16.948Z" fill="#545454"/>
</svg>
