<svg width="28" height="28" viewBox="0 0 28 28" fill="none" xmlns="http://www.w3.org/2000/svg">
<circle cx="14" cy="14" r="13.5" stroke="#545454"/>
<path d="M17.0405 17.782V19H9.99847V18.048L13.9885 14.198C14.4738 13.7313 14.8005 13.33 14.9685 12.994C15.1365 12.6487 15.2205 12.3033 15.2205 11.958C15.2205 11.4447 15.0385 11.048 14.6745 10.768C14.3198 10.4787 13.8065 10.334 13.1345 10.334C12.0518 10.334 11.2165 10.6887 10.6285 11.398L9.67647 10.572C10.0591 10.1053 10.5585 9.74133 11.1745 9.48C11.7998 9.21867 12.4951 9.088 13.2605 9.088C14.2871 9.088 15.1038 9.33533 15.7105 9.83C16.3171 10.3153 16.6205 10.978 16.6205 11.818C16.6205 12.3407 16.5085 12.8353 16.2845 13.302C16.0605 13.7687 15.6358 14.3007 15.0105 14.898L12.0145 17.782H17.0405Z" fill="#545454"/>
</svg>
