<svg width="28" height="28" viewBox="0 0 28 28" fill="none" xmlns="http://www.w3.org/2000/svg">
<circle cx="14" cy="14" r="13.5" stroke="#545454"/>
<path d="M13.0297 9.088C14.3457 9.088 15.3584 9.51267 16.0677 10.362C16.7864 11.2113 17.1457 12.4153 17.1457 13.974C17.1457 15.066 16.9497 15.9993 16.5577 16.774C16.175 17.5393 15.6337 18.1227 14.9337 18.524C14.243 18.916 13.4357 19.112 12.5117 19.112C12.0357 19.112 11.5877 19.0653 11.1677 18.972C10.7477 18.8693 10.3837 18.7247 10.0757 18.538L10.6077 17.446C11.0837 17.754 11.7137 17.908 12.4977 17.908C13.515 17.908 14.3084 17.5953 14.8777 16.97C15.4564 16.3353 15.7457 15.416 15.7457 14.212V13.862C15.4657 14.282 15.0784 14.604 14.5837 14.828C14.089 15.0427 13.5337 15.15 12.9177 15.15C12.2737 15.15 11.695 15.0287 11.1817 14.786C10.6777 14.5433 10.281 14.198 9.99169 13.75C9.71169 13.2927 9.57169 12.77 9.57169 12.182C9.57169 11.566 9.72102 11.0247 10.0197 10.558C10.3277 10.0913 10.743 9.732 11.2657 9.48C11.7884 9.21867 12.3764 9.088 13.0297 9.088ZM13.1557 14.016C13.5944 14.016 13.9864 13.932 14.3317 13.764C14.677 13.596 14.943 13.3673 15.1297 13.078C15.3257 12.7887 15.4237 12.4667 15.4237 12.112C15.4237 11.7667 15.3304 11.454 15.1437 11.174C14.9664 10.8847 14.7004 10.656 14.3457 10.488C14.0004 10.3107 13.5804 10.222 13.0857 10.222C12.4417 10.222 11.919 10.3947 11.5177 10.74C11.1257 11.0853 10.9297 11.5473 10.9297 12.126C10.9297 12.7047 11.1304 13.1667 11.5317 13.512C11.933 13.848 12.4744 14.016 13.1557 14.016Z" fill="#545454"/>
</svg>
