<svg width="28" height="28" viewBox="0 0 28 28" fill="none" xmlns="http://www.w3.org/2000/svg">
<circle cx="14" cy="14" r="13.5" stroke="#545454"/>
<path d="M15.1591 13.862C15.7191 14.0767 16.1485 14.3847 16.4471 14.786C16.7458 15.1873 16.8951 15.668 16.8951 16.228C16.8951 16.816 16.7365 17.3293 16.4191 17.768C16.1018 18.1973 15.6491 18.5287 15.0611 18.762C14.4731 18.9953 13.7825 19.112 12.9891 19.112C12.2051 19.112 11.5191 18.9953 10.9311 18.762C10.3525 18.5287 9.90445 18.1973 9.58712 17.768C9.26978 17.3293 9.11112 16.816 9.11112 16.228C9.11112 15.668 9.25578 15.1873 9.54512 14.786C9.84378 14.3847 10.2731 14.0767 10.8331 13.862C10.3851 13.6473 10.0445 13.3627 9.81112 13.008C9.57778 12.6533 9.46112 12.2333 9.46112 11.748C9.46112 11.2067 9.60578 10.7353 9.89512 10.334C10.1938 9.93267 10.6091 9.62467 11.1411 9.41C11.6731 9.19533 12.2891 9.088 12.9891 9.088C13.6985 9.088 14.3191 9.19533 14.8511 9.41C15.3925 9.62467 15.8078 9.93267 16.0971 10.334C16.3958 10.7353 16.5451 11.2067 16.5451 11.748C16.5451 12.224 16.4238 12.644 16.1811 13.008C15.9478 13.3627 15.6071 13.6473 15.1591 13.862ZM12.9891 10.222C12.3265 10.222 11.8038 10.3667 11.4211 10.656C11.0385 10.936 10.8471 11.3187 10.8471 11.804C10.8471 12.2893 11.0338 12.672 11.4071 12.952C11.7898 13.232 12.3171 13.372 12.9891 13.372C13.6705 13.372 14.2025 13.232 14.5851 12.952C14.9771 12.672 15.1731 12.2893 15.1731 11.804C15.1731 11.3187 14.9725 10.936 14.5711 10.656C14.1791 10.3667 13.6518 10.222 12.9891 10.222ZM12.9891 17.978C13.7638 17.978 14.3751 17.8193 14.8231 17.502C15.2711 17.1753 15.4951 16.7367 15.4951 16.186C15.4951 15.6447 15.2711 15.22 14.8231 14.912C14.3751 14.5947 13.7638 14.436 12.9891 14.436C12.2145 14.436 11.6078 14.5947 11.1691 14.912C10.7305 15.22 10.5111 15.6447 10.5111 16.186C10.5111 16.7367 10.7305 17.1753 11.1691 17.502C11.6078 17.8193 12.2145 17.978 12.9891 17.978Z" fill="#545454"/>
</svg>
