<svg width="28" height="28" viewBox="0 0 28 28" fill="none" xmlns="http://www.w3.org/2000/svg">
<circle cx="14" cy="14" r="13.5" stroke="#545454"/>
<path d="M10.7402 9.2V19H9.35423V10.418H7.14223V9.2H10.7402ZM17.3079 19.112C16.5332 19.112 15.8425 18.916 15.2359 18.524C14.6385 18.1227 14.1672 17.544 13.8219 16.788C13.4765 16.032 13.3039 15.136 13.3039 14.1C13.3039 13.064 13.4765 12.168 13.8219 11.412C14.1672 10.656 14.6385 10.082 15.2359 9.69C15.8425 9.28867 16.5332 9.088 17.3079 9.088C18.0732 9.088 18.7545 9.28867 19.3519 9.69C19.9585 10.082 20.4345 10.656 20.7799 11.412C21.1252 12.168 21.2979 13.064 21.2979 14.1C21.2979 15.136 21.1252 16.032 20.7799 16.788C20.4345 17.544 19.9585 18.1227 19.3519 18.524C18.7545 18.916 18.0732 19.112 17.3079 19.112ZM17.3079 17.866C18.0919 17.866 18.7172 17.544 19.1839 16.9C19.6599 16.256 19.8979 15.3227 19.8979 14.1C19.8979 12.8773 19.6599 11.944 19.1839 11.3C18.7172 10.656 18.0919 10.334 17.3079 10.334C16.5145 10.334 15.8799 10.656 15.4039 11.3C14.9372 11.944 14.7039 12.8773 14.7039 14.1C14.7039 15.3227 14.9372 16.256 15.4039 16.9C15.8799 17.544 16.5145 17.866 17.3079 17.866Z" fill="#545454"/>
</svg>
