<svg width="136" height="34" viewBox="0 0 136 34" fill="none" xmlns="http://www.w3.org/2000/svg">
<circle cx="119" cy="17" r="16.5" stroke="#545454"/>
<line x1="102" y1="17.5" y2="17.5" stroke="#545454"/>
<path d="M120.372 16.098C121.539 16.2113 122.429 16.574 123.041 17.186C123.653 17.7867 123.959 18.5573 123.959 19.498C123.959 20.178 123.789 20.7957 123.449 21.351C123.109 21.895 122.599 22.3313 121.919 22.66C121.25 22.9773 120.429 23.136 119.454 23.136C118.604 23.136 117.788 23.0113 117.006 22.762C116.224 22.5013 115.584 22.1443 115.085 21.691L115.867 20.348C116.275 20.7333 116.796 21.045 117.431 21.283C118.066 21.5097 118.74 21.623 119.454 21.623C120.338 21.623 121.024 21.436 121.511 21.062C122.01 20.688 122.259 20.1723 122.259 19.515C122.259 18.8577 122.015 18.3477 121.528 17.985C121.041 17.6223 120.304 17.441 119.318 17.441H118.366V16.251L121.358 12.579H115.629V11.1H123.483V12.256L120.372 16.098Z" fill="#545454"/>
</svg>
