<svg width="136" height="34" viewBox="0 0 136 34" fill="none" xmlns="http://www.w3.org/2000/svg">
<circle cx="119" cy="17" r="16.5" stroke="#545454"/>
<line x1="102" y1="17.5" y2="17.5" stroke="#545454"/>
<path d="M124.18 21.521V23H115.629V21.844L120.474 17.169C121.063 16.6023 121.46 16.115 121.664 15.707C121.868 15.2877 121.97 14.8683 121.97 14.449C121.97 13.8257 121.749 13.344 121.307 13.004C120.876 12.6527 120.253 12.477 119.437 12.477C118.122 12.477 117.108 12.9077 116.394 13.769L115.238 12.766C115.703 12.1993 116.309 11.7573 117.057 11.44C117.816 11.1227 118.661 10.964 119.59 10.964C120.837 10.964 121.828 11.2643 122.565 11.865C123.302 12.4543 123.67 13.259 123.67 14.279C123.67 14.9137 123.534 15.5143 123.262 16.081C122.99 16.6477 122.474 17.2937 121.715 18.019L118.077 21.521H124.18Z" fill="#545454"/>
</svg>
