<svg width="136" height="34" viewBox="0 0 136 34" fill="none" xmlns="http://www.w3.org/2000/svg">
<line x1="136" y1="17.5" x2="34" y2="17.5" stroke="#545454"/>
<circle cx="17" cy="17" r="16.5" stroke="#545454"/>
<path d="M13.505 11.1V23H11.822V12.579H9.136V11.1H13.505ZM24.982 21.521V23H16.431V21.844L21.276 17.169C21.8653 16.6023 22.262 16.115 22.466 15.707C22.67 15.2877 22.772 14.8683 22.772 14.449C22.772 13.8257 22.551 13.344 22.109 13.004C21.6783 12.6527 21.055 12.477 20.239 12.477C18.9243 12.477 17.91 12.9077 17.196 13.769L16.04 12.766C16.5047 12.1993 17.111 11.7573 17.859 11.44C18.6183 11.1227 19.4627 10.964 20.392 10.964C21.6387 10.964 22.6303 11.2643 23.367 11.865C24.1037 12.4543 24.472 13.259 24.472 14.279C24.472 14.9137 24.336 15.5143 24.064 16.081C23.792 16.6477 23.2763 17.2937 22.517 18.019L18.879 21.521H24.982Z" fill="#545454"/>
</svg>
