<svg width="136" height="34" viewBox="0 0 136 34" fill="none" xmlns="http://www.w3.org/2000/svg">
<circle cx="119" cy="17" r="16.5" stroke="#545454"/>
<line x1="102" y1="17.5" y2="17.5" stroke="#545454"/>
<path d="M118.216 15.843C119.916 15.843 121.163 16.166 121.956 16.812C122.761 17.4467 123.163 18.3193 123.163 19.43C123.163 20.1327 122.993 20.7673 122.653 21.334C122.324 21.8893 121.82 22.3313 121.14 22.66C120.471 22.9773 119.644 23.136 118.658 23.136C117.819 23.136 117.009 23.0113 116.227 22.762C115.445 22.5013 114.799 22.1443 114.289 21.691L115.071 20.348C115.479 20.7333 116 21.045 116.635 21.283C117.27 21.5097 117.938 21.623 118.641 21.623C119.536 21.623 120.228 21.436 120.715 21.062C121.214 20.6767 121.463 20.1553 121.463 19.498C121.463 18.784 121.191 18.2457 120.647 17.883C120.103 17.509 119.174 17.322 117.859 17.322H115.156L115.785 11.1H122.5V12.579H117.213L116.89 15.843H118.216Z" fill="#545454"/>
</svg>
