<svg width="28" height="28" viewBox="0 0 28 28" fill="none" xmlns="http://www.w3.org/2000/svg">
<circle cx="14" cy="14" r="13.5" stroke="#545454"/>
<path d="M10.8896 9.2V19H9.50365V10.418H7.29165V9.2H10.8896ZM20.3413 17.782V19H13.2993V18.048L17.2893 14.198C17.7746 13.7313 18.1013 13.33 18.2693 12.994C18.4373 12.6487 18.5213 12.3033 18.5213 11.958C18.5213 11.4447 18.3393 11.048 17.9753 10.768C17.6206 10.4787 17.1073 10.334 16.4353 10.334C15.3526 10.334 14.5173 10.6887 13.9293 11.398L12.9773 10.572C13.36 10.1053 13.8593 9.74133 14.4753 9.48C15.1006 9.21867 15.796 9.088 16.5613 9.088C17.588 9.088 18.4046 9.33533 19.0113 9.83C19.618 10.3153 19.9213 10.978 19.9213 11.818C19.9213 12.3407 19.8093 12.8353 19.5853 13.302C19.3613 13.7687 18.9366 14.3007 18.3113 14.898L15.3153 17.782H20.3413Z" fill="#545454"/>
</svg>
