<svg width="28" height="28" viewBox="0 0 28 28" fill="none" xmlns="http://www.w3.org/2000/svg">
<circle cx="14" cy="14" r="13.5" stroke="#545454"/>
<path d="M13.9181 13.316C14.8795 13.4093 15.6121 13.708 16.1161 14.212C16.6201 14.7067 16.8721 15.3413 16.8721 16.116C16.8721 16.676 16.7321 17.1847 16.4521 17.642C16.1721 18.09 15.7521 18.4493 15.1921 18.72C14.6415 18.9813 13.9648 19.112 13.1621 19.112C12.4621 19.112 11.7901 19.0093 11.1461 18.804C10.5021 18.5893 9.97481 18.2953 9.56414 17.922L10.2081 16.816C10.5441 17.1333 10.9735 17.39 11.4961 17.586C12.0188 17.7727 12.5741 17.866 13.1621 17.866C13.8901 17.866 14.4548 17.712 14.8561 17.404C15.2668 17.096 15.4721 16.6713 15.4721 16.13C15.4721 15.5887 15.2715 15.1687 14.8701 14.87C14.4688 14.5713 13.8621 14.422 13.0501 14.422H12.2661V13.442L14.7301 10.418H10.0121V9.2H16.4801V10.152L13.9181 13.316Z" fill="#545454"/>
</svg>
