<svg width="136" height="34" viewBox="0 0 136 34" fill="none" xmlns="http://www.w3.org/2000/svg">
<line x1="136" y1="17.5" x2="34" y2="17.5" stroke="#545454"/>
<circle cx="17" cy="17" r="16.5" stroke="#545454"/>
<path d="M20.092 16.761C20.772 17.0217 21.2933 17.3957 21.656 17.883C22.0187 18.3703 22.2 18.954 22.2 19.634C22.2 20.348 22.0073 20.9713 21.622 21.504C21.2367 22.0253 20.687 22.4277 19.973 22.711C19.259 22.9943 18.4203 23.136 17.457 23.136C16.505 23.136 15.672 22.9943 14.958 22.711C14.2553 22.4277 13.7113 22.0253 13.326 21.504C12.9407 20.9713 12.748 20.348 12.748 19.634C12.748 18.954 12.9237 18.3703 13.275 17.883C13.6377 17.3957 14.159 17.0217 14.839 16.761C14.295 16.5003 13.8813 16.1547 13.598 15.724C13.3147 15.2933 13.173 14.7833 13.173 14.194C13.173 13.5367 13.3487 12.9643 13.7 12.477C14.0627 11.9897 14.567 11.6157 15.213 11.355C15.859 11.0943 16.607 10.964 17.457 10.964C18.3183 10.964 19.072 11.0943 19.718 11.355C20.3753 11.6157 20.8797 11.9897 21.231 12.477C21.5937 12.9643 21.775 13.5367 21.775 14.194C21.775 14.772 21.6277 15.282 21.333 15.724C21.0497 16.1547 20.636 16.5003 20.092 16.761ZM17.457 12.341C16.6523 12.341 16.0177 12.5167 15.553 12.868C15.0883 13.208 14.856 13.6727 14.856 14.262C14.856 14.8513 15.0827 15.316 15.536 15.656C16.0007 15.996 16.641 16.166 17.457 16.166C18.2843 16.166 18.9303 15.996 19.395 15.656C19.871 15.316 20.109 14.8513 20.109 14.262C20.109 13.6727 19.8653 13.208 19.378 12.868C18.902 12.5167 18.2617 12.341 17.457 12.341ZM17.457 21.759C18.3977 21.759 19.14 21.5663 19.684 21.181C20.228 20.7843 20.5 20.2517 20.5 19.583C20.5 18.9257 20.228 18.41 19.684 18.036C19.14 17.6507 18.3977 17.458 17.457 17.458C16.5163 17.458 15.7797 17.6507 15.247 18.036C14.7143 18.41 14.448 18.9257 14.448 19.583C14.448 20.2517 14.7143 20.7843 15.247 21.181C15.7797 21.5663 16.5163 21.759 17.457 21.759Z" fill="#545454"/>
</svg>
