<svg width="600" height="680" viewBox="0 0 600 680" fill="none" xmlns="http://www.w3.org/2000/svg">
<path opacity="0.6" d="M374.99 89.7209C395.786 95.074 415.708 102.607 434.496 112.061C532.286 161.272 599.378 262.543 599.378 379.485C599.378 544.723 465.425 678.675 300.187 678.675C134.948 678.675 0.99585 544.723 0.99585 379.485C0.99585 262.543 68.0869 161.272 165.878 112.061" stroke="#E9B8A2"/>
<circle cx="300.477" cy="379.775" r="256.178" fill="#F2D4C7"/>
<path d="M329.116 112.427C329.116 112.427 310.206 36.2402 251.373 12.9608C188.337 -12.4348 133.707 8.72822 133.707 8.72822C133.707 8.72822 169.427 65.8684 209.349 87.0314C261.879 114.543 329.116 112.427 329.116 112.427Z" fill="#D2D8D4"/>
</svg>
